<?xml version="1.0" standalone="no"?>
<!DOCTYPE svg PUBLIC "-//W3C//DTD SVG 20010904//EN"
 "http://www.w3.org/TR/2001/REC-SVG-20010904/DTD/svg10.dtd">
<svg version="1.0" xmlns="http://www.w3.org/2000/svg"
 width="1024.000000pt" height="1024.000000pt" viewBox="0 0 1024.000000 1024.000000"
 preserveAspectRatio="xMidYMid meet">
<metadata>
Created by potrace 1.14, written by Peter Selinger 2001-2017
</metadata>
<g transform="translate(0.000000,1024.000000) scale(0.100000,-0.100000)"
fill="#000000" stroke="none">
<path d="M0 5120 l0 -5120 5120 0 5120 0 0 5120 0 5120 -5120 0 -5120 0 0
-5120z m6409 3624 c61 -18 132 -77 164 -139 20 -36 22 -59 25 -212 l4 -171
171 -4 c194 -4 219 -12 288 -85 69 -72 74 -89 77 -280 l4 -171 171 -4 c194 -4
218 -11 288 -85 69 -72 74 -89 77 -280 l4 -171 171 -4 c193 -3 208 -8 285 -81
68 -66 82 -118 82 -302 l0 -153 173 -4 c197 -4 220 -11 294 -91 79 -86 73 126
73 -2467 0 -2626 8 -2383 -85 -2476 -92 -93 152 -85 -2495 -82 l-2335 3 -45
21 c-55 25 -103 72 -133 128 -20 37 -22 59 -25 213 l-4 171 -171 4 c-190 4
-220 12 -286 79 -68 67 -76 96 -79 286 l-4 171 -171 4 c-190 3 -219 11 -286
79 -68 67 -76 96 -79 286 l-4 171 -171 4 c-171 3 -172 3 -227 34 -59 34 -112
100 -130 162 -5 20 -10 105 -10 189 l0 151 -172 4 c-170 3 -174 4 -226 32 -29
17 -66 48 -83 70 -63 86 -59 -84 -59 2456 0 2626 -8 2383 84 2476 38 37 68 57
102 68 43 13 337 15 2370 15 2079 1 2326 -1 2373 -15z"/>
<path d="M1702 8570 c-18 -11 -37 -32 -42 -46 -7 -17 -9 -844 -8 -2341 l3
-2315 33 -29 32 -29 235 0 235 0 0 -236 0 -236 34 -34 34 -34 236 0 236 0 0
-236 0 -236 34 -34 34 -34 236 0 236 0 0 -236 0 -236 34 -34 34 -34 236 0 236
0 0 -235 0 -235 29 -32 29 -33 2331 0 2331 0 27 28 28 27 0 2331 0 2331 -33
29 -32 29 -235 0 -234 0 -3 241 -3 241 -33 29 -32 29 -235 0 -235 0 0 236 0
236 -34 34 -34 34 -236 0 -236 0 0 236 0 236 -34 34 -34 34 -236 0 -236 0 0
235 0 235 -29 32 -29 33 -2319 2 c-2303 3 -2318 3 -2351 -17z m4648 -2181
c258 -71 428 -266 455 -522 l7 -67 -201 0 -201 0 0 33 c0 17 -10 52 -21 77
-47 104 -127 150 -260 150 -72 0 -93 -4 -138 -26 -152 -76 -170 -282 -43 -491
49 -82 535 -772 544 -772 4 -1 48 78 98 174 l91 175 205 0 c112 0 204 -2 204
-5 0 -2 -81 -158 -180 -346 l-180 -341 182 -256 c101 -140 187 -261 191 -269
7 -11 -29 -13 -205 -13 l-213 0 -75 106 c-41 58 -78 108 -82 110 -5 3 -37 -21
-72 -53 -81 -74 -170 -126 -271 -160 -73 -25 -94 -27 -240 -27 -150 -1 -166 1
-247 28 -191 62 -316 193 -374 391 -25 87 -32 576 -10 682 34 162 127 289 259
352 37 18 67 35 67 38 0 3 -16 31 -35 63 -111 182 -153 404 -109 574 47 181
191 322 399 390 125 40 320 43 455 5z m-2153 -610 c254 -96 237 -459 -25 -535
-40 -12 -79 -15 -137 -12 -184 12 -288 115 -288 285 0 127 67 223 185 264 75
26 191 25 265 -2z m-20 -1364 c242 -72 274 -407 49 -522 -74 -39 -215 -45
-300 -13 -119 45 -179 135 -179 267 0 132 72 227 202 267 61 19 165 20 228 1z"/>
<path d="M5811 5049 c-93 -57 -103 -97 -99 -411 3 -275 5 -285 67 -351 51 -56
96 -72 201 -72 114 0 161 19 249 101 102 94 115 56 -145 420 -125 175 -230
322 -233 326 -4 4 -22 -2 -40 -13z"/>
</g>
</svg>
