<?xml version="1.0" standalone="no"?>
<!DOCTYPE svg PUBLIC "-//W3C//DTD SVG 20010904//EN"
 "http://www.w3.org/TR/2001/REC-SVG-20010904/DTD/svg10.dtd">
<svg version="1.0" xmlns="http://www.w3.org/2000/svg"
 width="512.000000pt" height="512.000000pt" viewBox="0 0 512.000000 512.000000"
 preserveAspectRatio="xMidYMid meet">
<metadata>
Created by potrace 1.14, written by Peter Selinger 2001-2017
</metadata>
<g transform="translate(0.000000,512.000000) scale(0.100000,-0.100000)"
fill="#000000" stroke="none">
<path d="M258 5059 c-82 -12 -147 -61 -181 -138 -19 -44 -20 -65 -20 -1620 0
-867 4 -1592 8 -1611 15 -70 70 -133 141 -161 16 -6 70 -13 119 -14 l90 -2 6
-102 c6 -89 10 -108 36 -149 17 -28 48 -58 77 -77 44 -27 60 -31 151 -35 l101
-5 1 -90 c1 -104 18 -152 69 -202 51 -49 96 -64 200 -66 l92 -1 4 -102 c3 -92
6 -106 33 -150 34 -55 104 -103 156 -109 19 -2 66 -4 104 -4 l70 -1 1 -88 c0
-106 13 -146 62 -198 76 -83 -71 -76 1713 -76 1561 -1 1586 0 1630 19 59 27
96 63 121 121 l21 47 0 1570 c0 864 -3 1587 -7 1609 -16 82 -84 152 -172 174
-21 6 -72 9 -111 8 l-73 -1 -1 70 c-2 110 -7 137 -37 185 -28 45 -97 96 -142
104 -14 2 -61 5 -105 5 l-81 1 -1 93 c-1 105 -16 149 -66 201 -51 52 -98 68
-204 69 l-93 0 0 86 c-1 95 -14 143 -54 196 -44 57 -96 78 -204 82 -51 1 -96
5 -100 7 -5 3 -7 38 -7 78 1 40 -2 89 -7 108 -21 79 -97 151 -173 166 -48 9
-3105 11 -3167 3z"/>
</g>
</svg>
