<svg width="4064" height="2554" viewBox="0 0 4064 2554" fill="none" xmlns="http://www.w3.org/2000/svg">
<path d="M72 1613H131V1677C131 1705.17 153.833 1728 182 1728H241V1792C241 1820.17 263.833 1843 292 1843H351V1907C351 1935.17 373.833 1958 402 1958H461V2022C461 2050.17 483.833 2073 512 2073H571V2137C571 2165.17 593.833 2188 622 2188H681V2252C681 2280.17 703.833 2303 732 2303H791V2367C791 2395.17 813.833 2418 842 2418H901V2482C901 2510.17 923.833 2533 952 2533H3992C4020.17 2533 4043 2510.17 4043 2482V992C4043 963.833 4020.17 941 3992 941H3933V877C3933 848.833 3910.17 826 3882 826H3823V762C3823 733.833 3800.17 711 3772 711H3713V647C3713 618.833 3690.17 596 3662 596H3603V532C3603 503.833 3580.17 481 3552 481H3493V417C3493 388.833 3470.17 366 3442 366H3383V302C3383 273.834 3360.17 251 3332 251H3273V187C3273 158.834 3250.17 136 3222 136H3163V72C3163 43.8335 3140.17 21 3112 21H72C43.8335 21 21 43.8334 21 72V1562C21 1590.17 43.8335 1613 72 1613Z" fill="#1C39BB" stroke="white" stroke-width="42"/>
<path d="M589.32 1238V797.08H863.536V867.144H663.612V984.924H847.832V1054.99H664.82V1238H589.32ZM1096.44 1244.04C1068.26 1244.04 1043.69 1238.81 1022.76 1228.34C1002.22 1217.46 986.315 1202.36 975.04 1183.04C964.168 1163.31 958.732 1140.15 958.732 1113.58V921.504C958.732 894.928 964.168 871.976 975.04 852.648C986.315 832.917 1002.22 817.817 1022.76 807.348C1043.69 796.476 1068.26 791.04 1096.44 791.04C1125.03 791.04 1149.6 796.476 1170.13 807.348C1190.67 817.817 1206.37 832.917 1217.24 852.648C1228.52 871.976 1234.16 894.727 1234.16 920.9V1113.58C1234.16 1140.15 1228.52 1163.31 1217.24 1183.04C1206.37 1202.36 1190.67 1217.46 1170.13 1228.34C1149.6 1238.81 1125.03 1244.04 1096.44 1244.04ZM1096.44 1177.6C1116.98 1177.6 1132.48 1172.16 1142.95 1161.29C1153.42 1150.02 1158.66 1134.11 1158.66 1113.58V921.504C1158.66 900.565 1153.42 884.66 1142.95 873.788C1132.48 862.916 1116.98 857.48 1096.44 857.48C1075.91 857.48 1060.41 862.916 1049.94 873.788C1039.47 884.66 1034.23 900.565 1034.23 921.504V1113.58C1034.23 1134.11 1039.47 1150.02 1049.94 1161.29C1060.81 1172.16 1076.31 1177.6 1096.44 1177.6ZM1335.39 1238V797.08H1474.92C1504.31 797.08 1529.68 802.516 1551.02 813.388C1572.76 824.26 1589.68 839.561 1601.76 859.292C1613.84 878.62 1619.88 901.572 1619.88 928.148C1619.88 957.14 1612.43 982.709 1597.53 1004.86C1583.03 1027 1563.3 1042.71 1538.34 1051.97L1625.92 1238H1541.36L1464.65 1062.84H1410.89V1238H1335.39ZM1410.89 996.4H1474.92C1496.26 996.4 1512.97 990.561 1525.05 978.884C1537.13 967.207 1543.17 951.1 1543.17 930.564C1543.17 909.625 1537.13 893.317 1525.05 881.64C1512.97 869.56 1496.26 863.52 1474.92 863.52H1410.89V996.4ZM1709.64 1238V797.08H1785.14V975.26H1837.68L1920.43 797.08H2002.58L1904.12 1008.48L2007.41 1238H1923.45L1836.48 1044.12H1785.14V1238H1709.64ZM2084.48 1238V797.08H2219.78C2262.46 797.08 2296.29 807.348 2321.25 827.884C2346.22 848.017 2358.7 875.6 2358.7 910.632C2358.7 930.363 2354.27 947.476 2345.41 961.972C2336.55 976.468 2324.47 987.743 2309.17 995.796C2294.27 1003.85 2276.96 1007.88 2257.23 1007.88V1005.46C2278.57 1005.06 2297.49 1009.08 2314 1017.54C2330.92 1025.59 2344.2 1037.67 2353.87 1053.78C2363.93 1069.89 2368.97 1089.42 2368.97 1112.37C2368.97 1137.74 2363.13 1159.88 2351.45 1178.81C2339.77 1197.73 2323.27 1212.43 2301.92 1222.9C2280.99 1232.97 2255.82 1238 2226.42 1238H2084.48ZM2158.17 1175.18H2221.59C2243.74 1175.18 2261.05 1169.35 2273.54 1157.67C2286.42 1145.59 2292.86 1129.28 2292.86 1108.74C2292.86 1088.21 2286.42 1071.7 2273.54 1059.22C2261.05 1046.33 2243.74 1039.89 2221.59 1039.89H2158.17V1175.18ZM2158.17 978.884H2218.57C2238.71 978.884 2254.41 973.649 2265.68 963.18C2277.36 952.308 2283.2 937.611 2283.2 919.088C2283.2 900.565 2277.36 886.069 2265.68 875.6C2254.41 865.131 2238.71 859.896 2218.57 859.896H2158.17V978.884ZM2593.42 1244.04C2565.23 1244.04 2540.67 1238.81 2519.73 1228.34C2499.2 1217.46 2483.29 1202.36 2472.02 1183.04C2461.14 1163.31 2455.71 1140.15 2455.71 1113.58V921.504C2455.71 894.928 2461.14 871.976 2472.02 852.648C2483.29 832.917 2499.2 817.817 2519.73 807.348C2540.67 796.476 2565.23 791.04 2593.42 791.04C2622.01 791.04 2646.57 796.476 2667.11 807.348C2687.64 817.817 2703.35 832.917 2714.22 852.648C2725.5 871.976 2731.13 894.727 2731.13 920.9V1113.58C2731.13 1140.15 2725.5 1163.31 2714.22 1183.04C2703.35 1202.36 2687.64 1217.46 2667.11 1228.34C2646.57 1238.81 2622.01 1244.04 2593.42 1244.04ZM2593.42 1177.6C2613.96 1177.6 2629.46 1172.16 2639.93 1161.29C2650.4 1150.02 2655.63 1134.11 2655.63 1113.58V921.504C2655.63 900.565 2650.4 884.66 2639.93 873.788C2629.46 862.916 2613.96 857.48 2593.42 857.48C2572.88 857.48 2557.38 862.916 2546.91 873.788C2536.44 884.66 2531.21 900.565 2531.21 921.504V1113.58C2531.21 1134.11 2536.44 1150.02 2546.91 1161.29C2557.78 1172.16 2573.29 1177.6 2593.42 1177.6ZM2820.29 1238V797.08H2909.68L2952.56 937.208C2956.99 951.301 2960.62 964.187 2963.44 975.864C2966.26 987.541 2968.07 995.997 2968.87 1001.23C2969.68 995.997 2971.49 987.541 2974.31 975.864C2977.13 964.187 2980.55 951.301 2984.58 937.208L3025.65 797.08H3115.04V1238H3044.37V1100.89C3044.37 1080.76 3044.98 1058.81 3046.18 1035.06C3047.39 1011.3 3048.8 987.541 3050.41 963.784C3052.02 940.027 3053.84 917.477 3055.85 896.136C3058.26 874.795 3060.28 856.071 3061.89 839.964L3002.7 1048.34H2933.84L2872.84 839.964C2874.85 855.265 2876.86 873.385 2878.88 894.324C2880.89 914.86 2882.7 937.007 2884.31 960.764C2886.33 984.119 2887.94 1007.88 2889.14 1032.04C2890.35 1056.2 2890.96 1079.15 2890.96 1100.89V1238H2820.29ZM3207.22 1238V797.08H3342.51C3385.2 797.08 3419.02 807.348 3443.98 827.884C3468.95 848.017 3481.43 875.6 3481.43 910.632C3481.43 930.363 3477 947.476 3468.14 961.972C3459.29 976.468 3447.21 987.743 3431.9 995.796C3417.01 1003.85 3399.69 1007.88 3379.96 1007.88V1005.46C3401.3 1005.06 3420.23 1009.08 3436.74 1017.54C3453.65 1025.59 3466.94 1037.67 3476.6 1053.78C3486.67 1069.89 3491.7 1089.42 3491.7 1112.37C3491.7 1137.74 3485.86 1159.88 3474.18 1178.81C3462.51 1197.73 3446 1212.43 3424.66 1222.9C3403.72 1232.97 3378.55 1238 3349.16 1238H3207.22ZM3280.9 1175.18H3344.32C3366.47 1175.18 3383.79 1169.35 3396.27 1157.67C3409.15 1145.59 3415.6 1129.28 3415.6 1108.74C3415.6 1088.21 3409.15 1071.7 3396.27 1059.22C3383.79 1046.33 3366.47 1039.89 3344.32 1039.89H3280.9V1175.18ZM3280.9 978.884H3341.3C3361.44 978.884 3377.14 973.649 3388.42 963.18C3400.09 952.308 3405.93 937.611 3405.93 919.088C3405.93 900.565 3400.09 886.069 3388.42 875.6C3377.14 865.131 3361.44 859.896 3341.3 859.896H3280.9V978.884Z" fill="white"/>
<path d="M624.3 1587.65C613.632 1587.65 604.996 1584.73 598.392 1578.88C592.042 1572.79 588.867 1565.04 588.867 1555.64C588.867 1545.99 592.042 1538.25 598.392 1532.4C604.996 1526.56 613.632 1523.64 624.3 1523.64C634.968 1523.64 643.477 1526.56 649.827 1532.4C656.431 1538.25 659.733 1545.99 659.733 1555.64C659.733 1565.04 656.431 1572.79 649.827 1578.88C643.477 1584.73 634.968 1587.65 624.3 1587.65ZM624.3 1740.81C613.632 1740.81 604.996 1737.89 598.392 1732.05C592.042 1726.2 588.867 1718.46 588.867 1708.81C588.867 1699.15 592.042 1691.41 598.392 1685.56C604.996 1679.72 613.632 1676.8 624.3 1676.8C634.968 1676.8 643.477 1679.72 649.827 1685.56C656.431 1691.41 659.733 1699.15 659.733 1708.81C659.733 1718.46 656.431 1726.2 649.827 1732.05C643.477 1737.89 634.968 1740.81 624.3 1740.81ZM930.856 1782.72C892.248 1772.56 862.403 1754.65 841.321 1729C820.239 1703.09 809.698 1671.59 809.698 1634.51V1565.55C809.698 1541.17 814.524 1519.07 824.176 1499.26C834.082 1479.19 848.052 1462.17 866.086 1448.2C884.374 1433.98 905.964 1423.56 930.856 1416.96V1463.82C915.87 1467.38 902.789 1473.86 891.613 1483.25C880.691 1492.65 872.309 1504.34 866.467 1518.31C860.625 1532.28 857.704 1548.02 857.704 1565.55V1634.51C857.704 1651.53 860.625 1667.02 866.467 1680.99C872.309 1694.71 880.691 1706.27 891.613 1715.66C902.789 1724.81 915.87 1731.16 930.856 1734.71V1782.72ZM1025.96 1782.72V1734.71C1041.2 1731.16 1054.28 1724.81 1065.2 1715.66C1076.12 1706.27 1084.5 1694.71 1090.35 1680.99C1096.19 1667.02 1099.11 1651.53 1099.11 1634.51V1565.55C1099.11 1548.02 1096.19 1532.28 1090.35 1518.31C1084.5 1504.34 1076.12 1492.65 1065.2 1483.25C1054.28 1473.86 1041.2 1467.38 1025.96 1463.82V1416.96C1051.1 1423.56 1072.69 1433.98 1090.73 1448.2C1108.76 1462.17 1122.6 1479.19 1132.26 1499.26C1142.16 1519.07 1147.12 1541.17 1147.12 1565.55V1634.51C1147.12 1671.59 1136.57 1703.09 1115.49 1729C1094.41 1754.65 1064.57 1772.56 1025.96 1782.72ZM1390.43 1779.29C1376.2 1779.29 1363.63 1776.5 1352.71 1770.91C1342.04 1765.32 1333.91 1757.45 1328.32 1747.29C1322.73 1737.38 1320.32 1725.44 1321.08 1711.47L1324.89 1653.56C1325.66 1643.15 1323.5 1635.27 1318.42 1629.94C1313.59 1624.6 1305.34 1621.94 1293.65 1621.94H1248.31V1578.12H1293.65C1305.34 1578.12 1313.59 1575.46 1318.42 1570.12C1323.5 1564.79 1325.66 1557.04 1324.89 1546.88L1321.08 1487.06C1320.32 1473.35 1322.73 1461.54 1328.32 1451.63C1333.91 1441.72 1342.04 1434.1 1352.71 1428.77C1363.63 1423.44 1376.2 1420.77 1390.43 1420.77H1416.71V1464.58H1397.28C1388.14 1464.58 1380.9 1466.74 1375.57 1471.06C1370.49 1475.38 1368.2 1482.24 1368.71 1491.64L1372.52 1551.07C1373.53 1566.06 1369.09 1578.12 1359.18 1587.27C1349.28 1596.41 1335.43 1600.98 1317.65 1600.98V1598.32C1335.18 1598.32 1348.9 1603.01 1358.8 1612.41C1368.96 1621.56 1373.53 1633.75 1372.52 1648.99L1368.71 1708.42C1368.45 1716.81 1370.87 1723.41 1375.95 1728.24C1381.28 1732.81 1388.39 1735.09 1397.28 1735.09H1416.71V1779.29H1390.43ZM1804.66 1587.65C1793.99 1587.65 1785.35 1584.73 1778.75 1578.88C1772.4 1572.79 1769.22 1565.04 1769.22 1555.64C1769.22 1545.99 1772.4 1538.25 1778.75 1532.4C1785.35 1526.56 1793.99 1523.64 1804.66 1523.64C1815.32 1523.64 1823.83 1526.56 1830.18 1532.4C1836.79 1538.25 1840.09 1545.99 1840.09 1555.64C1840.09 1565.04 1836.79 1572.79 1830.18 1578.88C1823.83 1584.73 1815.32 1587.65 1804.66 1587.65ZM1804.66 1740.81C1793.99 1740.81 1785.35 1737.89 1778.75 1732.05C1772.4 1726.2 1769.22 1718.46 1769.22 1708.81C1769.22 1699.15 1772.4 1691.41 1778.75 1685.56C1785.35 1679.72 1793.99 1676.8 1804.66 1676.8C1815.32 1676.8 1823.83 1679.72 1830.18 1685.56C1836.79 1691.41 1840.09 1699.15 1840.09 1708.81C1840.09 1718.46 1836.79 1726.2 1830.18 1732.05C1823.83 1737.89 1815.32 1740.81 1804.66 1740.81ZM2016.72 1778.91V1420.77H2064.73V1778.91H2016.72ZM2276.8 1587.65C2266.13 1587.65 2257.49 1584.73 2250.89 1578.88C2244.54 1572.79 2241.37 1565.04 2241.37 1555.64C2241.37 1545.99 2244.54 1538.25 2250.89 1532.4C2257.49 1526.56 2266.13 1523.64 2276.8 1523.64C2287.47 1523.64 2295.98 1526.56 2302.33 1532.4C2308.93 1538.25 2312.23 1545.99 2312.23 1555.64C2312.23 1565.04 2308.93 1572.79 2302.33 1578.88C2295.98 1584.73 2287.47 1587.65 2276.8 1587.65ZM2276.8 1740.81C2266.13 1740.81 2257.49 1737.89 2250.89 1732.05C2244.54 1726.2 2241.37 1718.46 2241.37 1708.81C2241.37 1699.15 2244.54 1691.41 2250.89 1685.56C2257.49 1679.72 2266.13 1676.8 2276.8 1676.8C2287.47 1676.8 2295.98 1679.72 2302.33 1685.56C2308.93 1691.41 2312.23 1699.15 2312.23 1708.81C2312.23 1718.46 2308.93 1726.2 2302.33 1732.05C2295.98 1737.89 2287.47 1740.81 2276.8 1740.81ZM2487.34 1740.81C2464.48 1740.81 2446.7 1734.46 2434 1721.76C2421.3 1709.06 2414.95 1691.53 2414.95 1669.18V1633.75C2414.95 1616.73 2419.14 1602.76 2427.53 1591.84C2436.16 1580.92 2448.35 1574.19 2464.1 1571.65L2459.15 1581.93C2451.27 1571.01 2445.18 1560.34 2440.86 1549.93C2436.8 1539.51 2434.76 1529.23 2434.76 1519.07C2434.76 1506.37 2437.81 1495.32 2443.91 1485.92C2450 1476.27 2458.51 1468.78 2469.44 1463.44C2480.36 1457.85 2493.18 1455.06 2507.92 1455.06C2523.16 1455.06 2536.36 1457.98 2547.54 1463.82C2558.97 1469.66 2567.73 1477.79 2573.83 1488.21C2580.18 1498.37 2583.35 1510.43 2583.35 1524.4H2539.16C2539.16 1518.31 2537.89 1512.97 2535.35 1508.4C2532.81 1503.83 2529.13 1500.4 2524.3 1498.11C2519.73 1495.57 2514.27 1494.3 2507.92 1494.3C2501.82 1494.3 2496.49 1495.45 2491.91 1497.73C2487.34 1500.02 2483.79 1503.32 2481.25 1507.64C2478.96 1511.96 2477.82 1517.04 2477.82 1522.88C2477.82 1528.97 2479.34 1535.7 2482.39 1543.07C2485.69 1550.44 2490.14 1557.93 2495.72 1565.55L2548.3 1639.84L2569.26 1599.84H2615.36L2574.59 1677.18L2617.26 1737H2569.64L2551.73 1711.85C2533.95 1731.16 2512.49 1740.81 2487.34 1740.81ZM2491.15 1701.57C2498.52 1701.57 2505.38 1699.53 2511.73 1695.47C2518.08 1691.41 2523.54 1685.82 2528.11 1678.71L2475.91 1605.55C2470.58 1607.59 2466.64 1611.02 2464.1 1615.84C2461.56 1620.41 2460.29 1626.38 2460.29 1633.75V1669.18C2460.29 1679.34 2462.96 1687.34 2468.29 1693.18C2473.88 1698.77 2481.5 1701.57 2491.15 1701.57ZM2900.81 1779.29V1735.09H2920.24C2929.13 1735.09 2936.24 1732.81 2941.58 1728.24C2946.91 1723.41 2949.32 1716.81 2948.82 1708.42L2945.01 1648.99C2943.99 1633.75 2948.44 1621.56 2958.34 1612.41C2968.5 1603.01 2982.34 1598.32 2999.87 1598.32V1600.98C2982.34 1600.98 2968.5 1596.41 2958.34 1587.27C2948.44 1578.12 2943.99 1566.06 2945.01 1551.07L2948.82 1491.64C2949.32 1482.24 2946.91 1475.38 2941.58 1471.06C2936.5 1466.74 2929.39 1464.58 2920.24 1464.58H2900.81V1420.77H2927.1C2941.32 1420.77 2953.77 1423.44 2964.44 1428.77C2975.36 1434.1 2983.61 1441.72 2989.2 1451.63C2994.79 1461.54 2997.2 1473.35 2996.44 1487.06L2992.63 1546.88C2991.87 1557.04 2994.03 1564.79 2999.11 1570.12C3004.19 1575.46 3012.44 1578.12 3023.87 1578.12H3069.21V1621.94H3023.87C3012.44 1621.94 3004.19 1624.6 2999.11 1629.94C2994.03 1635.27 2991.87 1643.15 2992.63 1653.56L2996.44 1711.47C2997.2 1725.44 2994.79 1737.38 2989.2 1747.29C2983.61 1757.45 2975.36 1765.32 2964.44 1770.91C2953.77 1776.5 2941.32 1779.29 2927.1 1779.29H2900.81ZM3165.84 1797.96L3196.32 1679.47H3257.28L3207.75 1797.96H3165.84ZM3217.27 1587.65C3207.87 1587.65 3200.13 1584.6 3194.03 1578.5C3188.19 1572.41 3185.27 1564.79 3185.27 1555.64C3185.27 1546.5 3188.32 1538.88 3194.41 1532.78C3200.51 1526.69 3208.13 1523.64 3217.27 1523.64H3224.89C3234.04 1523.64 3241.66 1526.69 3247.75 1532.78C3253.85 1538.88 3256.9 1546.5 3256.9 1555.64C3256.9 1564.79 3253.85 1572.41 3247.75 1578.5C3241.91 1584.6 3234.29 1587.65 3224.89 1587.65H3217.27ZM3457.15 1587.65C3446.49 1587.65 3437.85 1584.73 3431.25 1578.88C3424.9 1572.79 3421.72 1565.04 3421.72 1555.64C3421.72 1545.99 3424.9 1538.25 3431.25 1532.4C3437.85 1526.56 3446.49 1523.64 3457.15 1523.64C3467.82 1523.64 3476.33 1526.56 3482.68 1532.4C3489.29 1538.25 3492.59 1545.99 3492.59 1555.64C3492.59 1565.04 3489.29 1572.79 3482.68 1578.88C3476.33 1584.73 3467.82 1587.65 3457.15 1587.65ZM3457.15 1740.81C3446.49 1740.81 3437.85 1737.89 3431.25 1732.05C3424.9 1726.2 3421.72 1718.46 3421.72 1708.81C3421.72 1699.15 3424.9 1691.41 3431.25 1685.56C3437.85 1679.72 3446.49 1676.8 3457.15 1676.8C3467.82 1676.8 3476.33 1679.72 3482.68 1685.56C3489.29 1691.41 3492.59 1699.15 3492.59 1708.81C3492.59 1718.46 3489.29 1726.2 3482.68 1732.05C3476.33 1737.89 3467.82 1740.81 3457.15 1740.81Z" fill="white"/>
</svg>
